#!OML:ASF E:/inclinewalkrobotboard/Project1/Captureday1/Session1/subject1.ASF
:FULLY-SPECIFIED
:DEGREES
363
root 0 0 0 1.8260945925678285 -10.860028947964368 0.8662111572118487
lowerback -0.19108462263756287 -1.6302925362700618 -2.6928370716367125
upperback -0.6001394926927726 -2.1407169754590036 1.7092669536976417
thorax -0.31961122636018724 -1.0488925585730087 3.2252380812369053
lowerneck -24.57320513287665 -1.6361237668587638 -7.816683967314553
upperneck 28.32798795803998 0.31837293408532286 2.0266368059414432
head 13.628668983532501 -0.5866772856761656 2.2696846734167915
rclavicle -5.151876224387567E-15 1.1565555981399875E-15
rhumerus -32.63970287387913 -4.773325038822447 -80.67409229860138
rradius 30.336343110608347
rwrist 19.83883540018209
rhand -17.459911187903934 8.84116082629222
rfingers 7.125019999999933
rthumb 8.78861628527575 -20.979623607936034
lclavicle -1.7573703280633283E-15 1.0927906519175872E-15
lhumerus -19.51448902052973 -2.81604589151185 90.46233575414439
lradius 64.60598566888467
lwrist 1.8396887788514387
lhand -28.66814455832764 20.93466362000316
lfingers 7.125020000000025
lthumb -2.0280949849882903 50.92194543444832
rfemur -21.144078120264933 -0.6773850142061377 20.794359138097246
rtibia 71.96223859197136
rfoot -2.938263949932395 -6.623628138192294
rtoes 6.653258792679998
lfemur -7.772644003133368 -3.44151654435076 -26.561478316157782
ltibia 24.948149120137153
lfoot -13.333598699992525 -0.3115752468235282
ltoes 9.542316862956389
364
root 0 0 0 1.8616465037216055 -10.852955513647002 0.889331257031816
lowerback -0.22533918374217854 -1.6509617614161258 -2.731759673420036
upperback -0.5692129218991612 -2.1683420925239814 1.711653672119139
thorax -0.26898190741030936 -1.064799724161753 3.2492826189441217
lowerneck -24.68035390519709 -1.657652704025156 -7.888285498128886
upperneck 27.961466268664637 0.27144548831166326 2.1567434479648373
head 13.503670944149313 -0.5768473766545847 2.310569395446293
rclavicle -5.290529496940719E-15 9.832331485787107E-16
rhumerus -32.95549360483063 -5.074218718610508 -80.31559338354708
rradius 30.054881569627174
rwrist 20.054612949471846
rhand -17.384733595661597 8.798154709774419
rfingers 7.125019999999934
rthumb 8.861178471874533 -21.01536268999977
lclavicle -1.8437358969485328E-15 6.881366018348515E-16
lhumerus -20.01083902599217 -3.8495494378102153 90.86443495069994
lradius 64.77964766124124
lwrist 1.954074378322916
lhand -28.75270672586878 20.96104850703496
lfingers 7.125020000000024
lthumb -2.114552243334497 50.95292710987154
rfemur -26.503000185130887 -0.9527143900039707 20.292755235967473
rtibia 67.74871694531393
rfoot -5.057747953478094 -7.176797057035376
rtoes 4.372819494053872
lfemur -2.283413465225589 -3.5164330997660933 -28.61457544650957
ltibia 22.250599889209568
lfoot -17.007320765193345 0.2680055823047649
ltoes 7.202633665416245
365
root 0 0 0 1.9059589570658562 -10.885815504258229 0.9222698487877137
lowerback -0.2931039070442656 -1.6888666800984131 -2.7662234725601524
upperback -0.5316515504956345 -2.2186802226979974 1.7080853744583395
thorax -0.1910285148966403 -1.0926288469393959 3.263819220639888
lowerneck -24.88990196836922 -1.6901959915906315 -7.963823000314029
upperneck 27.665137120726 0.2248283676359022 2.2583171180385677
head 13.42607778846808 -0.571370708156416 2.3436050826038057
rclavicle -4.37507257438917E-15 8.852501839063554E-16
rhumerus -33.23797976845339 -5.089172325367716 -79.92303496409926
rradius 29.76689116058315
rwrist 20.227916397207082
rhand -17.36838885171565 8.773283455392477
rfingers 7.125019999999937
rthumb 8.877064244519362 -21.03140762984107
lclavicle -2.1586149727812878E-15 5.113614917119868E-16
lhumerus -20.4958359179607 -5.071664580456305 91.19093889921317
lradius 65.08642355142331
lwrist 2.1402007313185663
lhand -28.78589895283403 21.03530800535883
lfingers 7.125020000000023
lthumb -2.1520735638930457 51.0359675599449
rfemur -29.001440640383436 -0.358821951269217 19.188722656328636
rtibia 60.75838367191293
rfoot -5.47812244472169 -8.074763964297569
rtoes 2.037888093205879
lfemur 1.9197893935999506 -3.3308948752220964 -29.90100430232684
ltibia 21.256761004716772
lfoot -19.207260250956608 -0.09738425871033929
ltoes 4.508732657333287
366
root 0 0 0 1.9522134739638306 -10.937992782897444 0.9558384901260265
lowerback -0.3669843019403882 -1.732612625164962 -2.792412618340648
upperback -0.4931287324544894 -2.2765595510254952 1.700884452799606
thorax -0.10701212426738127 -1.124232339155145 3.2696279399482377
lowerneck -25.128428492252155 -1.7208121843887638 -8.026838920820417
upperneck 27.46408525545697 0.19102707948270958 2.3209086253295066
head 13.391994982406068 -0.5675605887583178 2.3651738449640085
rclavicle -2.446794293794889E-15 6.590784809049061E-16
rhumerus -33.49743744182305 -4.928586254603664 -79.48075991316111
rradius 29.445511796624743
rwrist 20.362382852661113
rhand -17.384755069317023 8.780672502114264
rfingers 7.125019999999938
rthumb 8.861032875499271 -21.01329130789932
lclavicle -1.2396841417366445E-15 6.097882929921183E-16
lhumerus -20.74068333337779 -6.323175498308522 91.32557041701938
lradius 65.55350274078252
lwrist 2.443549937740238
lhand -28.750596210029386 21.304459858484076
lfingers 7.125020000000023
lthumb -2.123431252865581 51.32061625239063
rfemur -31.45275574370124 0.9204587053489606 17.537883140556794
rtibia 50.15659767306052
rfoot -5.491507210116032 -9.60751740224254
rtoes -0.577383012912728
lfemur 5.668236138607221 -3.1018539249039705 -30.747983069758224
ltibia 20.307312872538972
lfoot -20.395122033268635 -0.7738908948737802
ltoes 1.6951988833650073
367
root 0 0 0 1.9966527237292562 -10.980537125046457 0.9884379742710611
lowerback -0.4204253080640892 -1.77241025979073 -2.811522605079885
upperback -0.45516563957116096 -2.3292363477476417 1.703664959230267
thorax -0.03390369791591752 -1.153308042539679 3.2819364625278533
lowerneck -25.397139321276423 -1.749108203508031 -8.068078379497074
upperneck 27.208583650963902 0.16285908765898582 2.3722014029778986
head 13.34575091383716 -0.5617169957413837 2.380866317453772
rclavicle 3.4420904725593704E-16 -8.343424122179288E-17
rhumerus -33.72273474885396 -4.506865990391519 -78.96989193857841
rradius 29.088092902799126
rwrist 20.424239217551428
rhand -17.454031913613004 8.840093079464172
rfingers 7.125019999999937
rthumb 8.793657984221468 -20.944076466708566
lclavicle 6.09950403254872E-16 4.988271738095551E-16
lhumerus -20.819139377115132 -7.517528504478754 91.34002361941668
lradius 66.10914136734677
lwrist 2.7974244144891167
lhand -28.69746134792923 21.75664292038057
lfingers 7.125020000000023
lthumb -2.075817128627512 51.789562888268854
rfemur -32.75783932038551 2.6804497160360317 16.95451982461629
rtibia 37.75986416504536
rfoot -5.898782465665104 -11.555250944970364
rtoes -2.7844480064886366
lfemur 9.860632603827828 -2.9955730936967053 -31.30869369092428
ltibia 19.57553043910896
lfoot -20.365173075364957 -1.9069026167604513
ltoes -1.484060101398029
368
root 0 0 0 2.0178055755647684 -10.992849497993662 1.0240550145820893
lowerback -0.4279096132694544 -1.7937171711676536 -2.817038521921178
upperback -0.44193228726836586 -2.358335401551653 1.738749546972263
thorax -0.01163607736634309 -1.1691497477670099 3.320680760442796
lowerneck -25.797081711407127 -1.791976279024222 -8.051182913377046
upperneck 26.64270512139541 0.12068440985466522 2.4311911065225194
head 13.216761273323927 -0.556826470807937 2.387233621022435
rclavicle 2.88154285584911E-15 -1.0068690967347362E-15
rhumerus -33.88538962777917 -3.8432263220022174 -78.46119104072399
rradius 28.74957774767493
rwrist 20.41240875246142
rhand -17.5778538406096 8.9349106856111
rfingers 7.125019999999935
rthumb 8.673826725737456 -20.846898061029606
lclavicle 2.169308739473036E-15 4.3634528018370346E-16
lhumerus -20.69640519413671 -8.621391875683658 91.25648919579672
lradius 66.66828053787317
lwrist 3.161223546396037
lhand -28.664387111315442 22.310832509863086
lfingers 7.1250200000000214
lthumb -2.0479623229045707 52.358696626944834
rfemur -33.01879643411237 4.2966117968142825 17.510798071258847
rtibia 27.338633268790687
rfoot -6.83514997442295 -13.081704184128336
rtoes -3.808924006683065
lfemur 15.827105314885262 -3.223933030961179 -31.303057697328924
ltibia 19.83967738431535
lfoot -17.479167564805962 -4.198550761800026
ltoes -5.898361299457664
